{"title":"Kikkerdril_(2009)_(Nl-gesproken)-2lions+WaRlOrD","uid":4943694,"size":732818494,"categoryP":"video","categoryS":"movies","magnet":"?xt=urn:btih:7316f1df9b65eed414c6e1659d066aaba76857df&amp;dn=Kikkerdril_%282009%29_%28Nl-gesproken%29-2lions%2BWaRlOrD&amp;tr=udp%3A%2F%2Ftracker.openbittorrent.com%3A80&amp;tr=udp%3A%2F%2Fopen.demonii.com%3A1337&amp;tr=udp%3A%2F%2Ftracker.coppersurfer.tk%3A6969&amp;tr=udp%3A%2F%2Fexodus.desync.com%3A6969","seeders":1,"leechers":0,"uploader":"bitpirate","files":-1,"time":1244561335,"description":"WaRlorD presents: kikkerdril\n\nNederland\nFamilie / Avontuur\n75 minuten\n\ngeregisseerd door Simone van Dusseldorp\nmet Nino den Brave, Whitney Franker en Georgina Verbaan\n\nKikkerdril gaat over de zesjarige Max die denkt dat zijn broer, die zijn amandelen heeft moeten laten knippen in het ziekenhuis, nooit meer kan praten en dat alleen kikkerdril hem kan genezen. Dus moet en zal Max het vinden! Na het ziekenhuisbezoek bij zijn broer ontmoet hij het meisje Jesse, waarmee hij een spannende tocht maakt langs weilanden, boerderijen, langs slootjes en door het bos. Zal Max onderweg kikkerdril vinden om zijn broer te genezen? &lt;a href=&quot;\nhttp://moviemeter.nl/film/52249&quot; rel=&quot;nofollow&quot; target=&quot;_NEW&quot;&gt;\nhttp://moviemeter.nl/film/52249&lt;/a&gt;\n\nFormat                           : AVI\nFormat/Info                      : Audio Video Interleave\nFile size                        : 699 MiB\nDuration                         : 1h 10mn\nOverall bit rate                 : 1 393 Kbps\nWriting application              : FairUse Wizard - http://fairusewizard.com\nWriting library                  : The best and REALLY easy backup tool\n\nVideo\nFormat                           : MPEG-4 Visual\nFormat profile                   : Streaming Video@L1\nFormat settings, BVOP            : Yes\nFormat settings, QPel            : No\nFormat settings, GMC             : No warppoints\nFormat settings, Matrix          : Default (H.263)\nMuxing mode                      : Packed bitstream\nCodec ID                         : XVID\nCodec ID/Hint                    : XviD\nDuration                         : 1h 10mn\nBit rate                         : 1 255 Kbps\nWidth                            : 688 pixels\nHeight                           : 384 pixels\nDisplay aspect ratio             : 16/9\nFrame rate                       : 25.000 fps\nResolution                       : 24 bits\nColorimetry                      : 4:2:0\nScan type                        : Progressive\nBits/(Pixel*Frame)               : 0.190\nStream size                      : 630 MiB (90%)\nWriting library                  : XviD 1.2.0.dev47 (UTC 2006-11-01)\n\nAudio\nFormat                           : MPEG Audio\nFormat version                   : Version 1\nFormat profile                   : Layer 3\nCodec ID                         : 55\nCodec ID/Hint                    : MP3\nDuration                         : 1h 10mn\nBit rate mode                    : Constant\nBit rate                         : 128 Kbps\nChannel(s)                       : 2 channels\nSampling rate                    : 48.0 KHz\nResolution                       : 16 bits\nStream size                      : 64.2 MiB (9%)\nAlignment                        : Aligned on interleaves\nInterleave, duration             : 40 ms (1.00 video frame)\nInterleave, preload duration     : 504 ms\nWriting library                  : LAME3.97 \nEncoding settings                : -m j -V 4 -q 2 -lowpass 17 -b 128\n\n\n******************************************\n\nBrought to you by\n\nWaRlOrD\nAND\n2Lions Team\n\nmeer zien??\nKom dan eens kijken op ons forum\nhttp://www.2lions.ons-forum.nl\n\n******************************************\nYou need this reseed? send me a pm @ piratebay forum","torrent":{"xt":"urn:btih:7316f1df9b65eed414c6e1659d066aaba76857df","amp;dn":"Kikkerdril_%282009%29_%28Nl-gesproken%29-2lions%2BWaRlOrD","amp;tr":["udp%3A%2F%2Ftracker.openbittorrent.com%3A80","udp%3A%2F%2Fopen.demonii.com%3A1337","udp%3A%2F%2Ftracker.coppersurfer.tk%3A6969","udp%3A%2F%2Fexodus.desync.com%3A6969"],"infoHash":"7316f1df9b65eed414c6e1659d066aaba76857df","infoHashBuffer":{"type":"Buffer","data":[115,22,241,223,155,101,238,212,20,198,225,101,157,6,106,171,167,104,87,223]},"announce":[],"urlList":[]}}